<svg id="Layer_1" data-name="Layer 1" xmlns="http://www.w3.org/2000/svg" viewBox="0 0 24 24">
    <defs>
        <style>.cls-1{fill:#346187;}</style>
    </defs><title>Artboard 22 copy</title>
    <path class="cls-1" d="M19.4,4.4h-.88V2.94H17.06V4.4H7.4V2.94H5.93V4.4H5.05A2.2,2.2,0,0,0,2.86,6.6V19.48a2.2,2.2,0,0,0,2.19,2.2H19.4a2.2,2.2,0,0,0,2.19-2.2V6.6A2.2,2.2,0,0,0,19.4,4.4Zm.73,15.08a.73.73,0,0,1-.73.73H5.05a.73.73,0,0,1-.73-.73V9.82H20.13Zm0-11.12H4.32V6.6a.73.73,0,0,1,.73-.73h.88V7.33H7.4V5.87h9.66V7.33h1.46V5.87h.88a.73.73,0,0,1,.73.73Z"/>
    <rect class="cls-1" x="5.64" y="11.36" width="1.46" height="1.46"/>
    <rect class="cls-1" x="8.57" y="11.36" width="1.46" height="1.46"/>
    <rect class="cls-1" x="11.49" y="11.36" width="1.46" height="1.46"/>
    <rect class="cls-1" x="14.42" y="11.36" width="1.46" height="1.46"/>
    <rect class="cls-1" x="17.35" y="11.36" width="1.46" height="1.46"/>
    <rect class="cls-1" x="5.64" y="14.28" width="1.46" height="1.46"/>
    <rect class="cls-1" x="8.57" y="14.28" width="1.46" height="1.46"/>
    <rect class="cls-1" x="11.49" y="14.28" width="1.46" height="1.46"/>
    <rect class="cls-1" x="14.42" y="14.28" width="1.46" height="1.46"/>
    <rect class="cls-1" x="5.64" y="17.21" width="1.46" height="1.46"/>
    <rect class="cls-1" x="8.57" y="17.21" width="1.46" height="1.46"/>
    <rect class="cls-1" x="11.49" y="17.21" width="1.46" height="1.46"/>
    <rect class="cls-1" x="14.42" y="17.21" width="1.46" height="1.46"/>
    <rect class="cls-1" x="17.35" y="14.28" width="1.46" height="1.46"/>
</svg>